<?xml version="1.0" encoding="iso-8859-1"?>
<!-- Uploaded to: SVG Repo, www.svgrepo.com, Generator: SVG Repo Mixer Tools -->
<svg fill="#000000" height="800px" width="800px" version="1.1" id="Layer_1" xmlns="http://www.w3.org/2000/svg" xmlns:xlink="http://www.w3.org/1999/xlink" 
	 viewBox="0 0 512 512" xml:space="preserve">
<g>
	<g>
		<path d="M404.672,152H283.328C259.44,152,240,171.44,240,195.328v249.344C240,468.56,259.44,488,283.328,488h121.344
			C428.56,488,448,468.56,448,444.672V195.328C448,171.44,428.56,152,404.672,152z M416,444.672c0,6.256-5.072,11.328-11.328,11.328
			H283.328c-6.256,0-11.328-5.072-11.328-11.328V195.328c0-6.256,5.072-11.328,11.328-11.328h121.344
			c6.256,0,11.328,5.072,11.328,11.328V444.672z"/>
	</g>
</g>
<g>
	<g>
		<path d="M432,376H256c-8.832,0-16,7.168-16,16c0,8.832,7.168,16,16,16h176c8.832,0,16-7.168,16-16
			C448,383.168,440.832,376,432,376z"/>
	</g>
</g>
<g>
	<g>
		<path d="M358.4,420c-6.08-5.92-16.64-6.08-22.72,0c-3.04,2.88-4.64,7.04-4.64,11.36c0,4.16,1.6,8.32,4.64,11.2
			c3.04,3.04,7.2,4.8,11.36,4.8c4.16,0,8.32-1.76,11.36-4.8c2.88-3.04,4.64-7.04,4.64-11.2C363.04,427.04,361.28,423.04,358.4,420z"
			/>
	</g>
</g>
<g>
	<g>
		<path d="M450.88,24H61.184C27.872,24,16,43.2,16,61.152V312c0,8.832,7.168,16,16,16c8.832,0,16-7.168,16-16V61.152
			C48,59.744,48,56,61.184,56H450.88C464,56,464,59.744,464,61.152V312c0,8.832,7.168,16,16,16c8.832,0,16-7.168,16-16V61.152
			C496,43.2,484.144,24,450.88,24z"/>
	</g>
</g>
<g>
	<g>
		<path d="M256,344H46.624c-4.592,0-11.104-7.632-13.6-16H256c8.832,0,16-7.168,16-16c0-8.832-7.168-16-16-16H16
			c-8.832,0-16,7.168-16,16v9.44C0,347.2,19.936,376,46.624,376H256c8.832,0,16-7.168,16-16C272,351.168,264.832,344,256,344z"/>
	</g>
</g>
<g>
	<g>
		<path d="M496,296h-64c-8.832,0-16,7.168-16,16c0,8.832,7.168,16,16,16h46.992c-2.496,8.368-8.992,16-13.552,16H432
			c-8.832,0-16,7.168-16,16c0,8.832,7.168,16,16,16h33.44c26.64,0,46.56-28.8,46.56-54.56V312C512,303.168,504.832,296,496,296z"/>
	</g>
</g>
<g>
	<g>
		<path d="M256,24c-8.832,0-16,7.168-16,16v16c0,8.832,7.168,16,16,16c8.832,0,16-7.168,16-16V40C272,31.168,264.832,24,256,24z"/>
	</g>
</g>
</svg>